<?xml version="1.0" encoding="UTF-8" standalone="no"?>
<!-- Created with Inkscape (http://www.inkscape.org/) -->

<svg
   width="120"
   height="120"
   viewBox="0 0 31.75 31.75"
   version="1.1"
   id="svg5"
   xmlns:xlink="http://www.w3.org/1999/xlink"
   xmlns="http://www.w3.org/2000/svg"
   xmlns:svg="http://www.w3.org/2000/svg">
  <defs
     id="defs2">
    <linearGradient
       id="linearGradient2795">
      <stop
         style="stop-color:#b8b8b8;stop-opacity:0.49803922;"
         offset="0"
         id="stop2797" />
      <stop
         style="stop-color:#7f7f7f;stop-opacity:0;"
         offset="1"
         id="stop2799" />
    </linearGradient>
    <linearGradient
       id="linearGradient2787">
      <stop
         style="stop-color:#7f7f7f;stop-opacity:0.5;"
         offset="0"
         id="stop2789" />
      <stop
         style="stop-color:#7f7f7f;stop-opacity:0;"
         offset="1"
         id="stop2791" />
    </linearGradient>
    <linearGradient
       id="linearGradient3676">
      <stop
         style="stop-color:#b2b2b2;stop-opacity:0.5;"
         offset="0"
         id="stop3678" />
      <stop
         style="stop-color:#b3b3b3;stop-opacity:0;"
         offset="1"
         id="stop3680" />
    </linearGradient>
    <linearGradient
       id="linearGradient3236">
      <stop
         style="stop-color:#f4f4f4;stop-opacity:1"
         offset="0"
         id="stop3244" />
      <stop
         style="stop-color:white;stop-opacity:1"
         offset="1"
         id="stop3240" />
    </linearGradient>
    <linearGradient
       id="linearGradient4671">
      <stop
         style="stop-color:#ffd43b;stop-opacity:1;"
         offset="0"
         id="stop4673" />
      <stop
         style="stop-color:#ffe873;stop-opacity:1"
         offset="1"
         id="stop4675" />
    </linearGradient>
    <linearGradient
       id="linearGradient4689">
      <stop
         style="stop-color:#5a9fd4;stop-opacity:1;"
         offset="0"
         id="stop4691" />
      <stop
         style="stop-color:#306998;stop-opacity:1;"
         offset="1"
         id="stop4693" />
    </linearGradient>
    <linearGradient
       x1="224.23996"
       y1="144.75717"
       x2="-65.308502"
       y2="144.75717"
       id="linearGradient2987"
       xlink:href="#linearGradient4671"
       gradientUnits="userSpaceOnUse"
       gradientTransform="translate(100.2702,99.61116)" />
    <linearGradient
       x1="172.94208"
       y1="77.475983"
       x2="26.670298"
       y2="76.313133"
       id="linearGradient2990"
       xlink:href="#linearGradient4689"
       gradientUnits="userSpaceOnUse"
       gradientTransform="translate(100.2702,99.61116)" />
    <linearGradient
       xlink:href="#linearGradient4671"
       id="linearGradient2255"
       gradientUnits="userSpaceOnUse"
       gradientTransform="matrix(0.562541,0,0,0.567972,-11.5974,-7.60954)"
       x1="224.23996"
       y1="144.75717"
       x2="-65.308502"
       y2="144.75717" />
    <linearGradient
       xlink:href="#linearGradient4689"
       id="linearGradient2258"
       gradientUnits="userSpaceOnUse"
       gradientTransform="matrix(0.562541,0,0,0.567972,-11.5974,-7.60954)"
       x1="172.94208"
       y1="76.176224"
       x2="26.670298"
       y2="76.313133" />
    <radialGradient
       xlink:href="#linearGradient2795"
       id="radialGradient2801"
       cx="61.518883"
       cy="132.28575"
       fx="61.518883"
       fy="132.28575"
       r="29.036913"
       gradientTransform="matrix(1,0,0,0.177966,0,108.7434)"
       gradientUnits="userSpaceOnUse" />
  </defs>
  <g
     id="g4388"
     transform="matrix(7.8181782,0,0,7.8181782,-110.30714,-103.71361)">
    <path
       style="fill:#000000;fill-opacity:1;stroke-width:0.264583"
       d="m 16.834114,15.329296 q 0.03307,-0.09922 0.09922,-0.09922 0.06615,0 0.09922,0.09922 0.03307,0.09922 0,0.198437 -0.03307,0.09922 -0.09922,0.09922 -0.06615,0 -0.09922,-0.09922 -0.03307,-0.09922 0,-0.198437"
       id="path2925-1" />
    <path
       style="fill:#000000;fill-opacity:1;stroke-width:0.264583"
       d="m 16.040364,15.329296 q 0.03307,-0.09922 0.09922,-0.09922 0.06615,0 0.09922,0.09922 0.03307,0.09922 0,0.198437 -0.03307,0.09922 -0.09922,0.09922 -0.06615,0 -0.09922,-0.09922 -0.03307,-0.09922 0,-0.198437"
       id="path2923-0" />
    <path
       style="fill:#ffffff;fill-opacity:1;stroke-width:0.264583"
       d="m 15.775781,15.064712 c 0.02551,-0.09415 0.121567,-0.140848 0.211357,-0.152443 0.143881,-0.02191 0.289978,-0.0097 0.434988,-0.01292 0.196872,0.0016 0.393929,-0.0035 0.59066,0.0032 0.102561,0.0097 0.230155,0.0312 0.275047,0.13836 0.06131,0.155722 0.03746,0.325465 0.04237,0.488769 -0.0011,0.208105 0.0024,0.41631 -0.0021,0.624343 -0.0089,0.107033 -0.0273,0.242668 -0.139523,0.290421 -0.155721,0.06131 -0.325464,0.03746 -0.488768,0.04237 -0.208105,-0.0011 -0.41631,0.0024 -0.624343,-0.0021 -0.107033,-0.0089 -0.242668,-0.0273 -0.290421,-0.139523 -0.06131,-0.155721 -0.03746,-0.325464 -0.04237,-0.488768 0.0011,-0.208105 -0.0024,-0.41631 0.0021,-0.624343 0.0038,-0.05674 0.01301,-0.113379 0.031,-0.167432 z m 0.264583,0.463021 c 0.0099,0.08415 0.12732,0.142173 0.174541,0.05232 0.05727,-0.09837 0.05587,-0.235498 -0.01744,-0.325175 -0.07856,-0.07404 -0.162418,0.03349 -0.167176,0.111622 -0.01141,0.05339 -0.0074,0.109605 0.01008,0.16123 z m 0.79375,0 c 0.0099,0.08415 0.12732,0.142173 0.174541,0.05232 0.05727,-0.09837 0.05587,-0.235498 -0.01744,-0.325175 -0.07856,-0.07404 -0.162418,0.03349 -0.167176,0.111622 -0.01141,0.05339 -0.0074,0.109605 0.01008,0.16123 z"
       id="path2921-9" />
    <path
       style="fill:#ffffff;fill-opacity:1;stroke-width:0.264583"
       d="m 14.982031,14.535546 c 0.01283,-0.0669 0.08138,-0.123577 0.148831,-0.08992 0.07585,0.03322 0.124345,0.104224 0.184334,0.158502 0.09657,0.08328 0.148373,0.207279 0.158278,0.332945 0.009,0.161907 0.0028,0.324334 0.0046,0.486482 -6.98e-4,0.238284 0.0014,0.476612 -0.0012,0.714866 -0.0087,0.09007 -0.01403,0.194163 -0.07958,0.263292 -0.06699,0.04859 -0.148868,-0.0074 -0.19546,-0.05878 -0.07994,-0.08439 -0.179508,-0.158024 -0.21563,-0.273765 -0.05428,-0.153664 -0.0329,-0.318261 -0.03733,-0.477907 7.2e-4,-0.29088 -0.0015,-0.581807 0.0012,-0.872656 0.0031,-0.06199 0.01228,-0.12404 0.03191,-0.183064 z"
       id="path2919-4" />
    <path
       style="fill:#ffffff;fill-opacity:1;stroke-width:0.264583"
       d="m 15.279687,14.23789 c 0.0067,-0.08655 0.110076,-0.104018 0.178285,-0.119372 0.137913,-0.02152 0.277994,-0.01 0.417029,-0.01292 0.280727,7.17e-4 0.5615,-0.0015 0.842196,0.0012 0.138223,0.0043 0.281941,0.04986 0.374569,0.157267 0.0541,0.05927 0.122546,0.107976 0.159639,0.180567 0.03564,0.06257 -0.0071,0.137741 -0.07454,0.152833 -0.15219,0.05406 -0.315346,0.033 -0.473542,0.03733 -0.292249,-7.21e-4 -0.584544,0.0015 -0.876763,-0.0012 -0.138223,-0.0043 -0.28194,-0.04986 -0.374568,-0.157267 -0.0541,-0.05927 -0.122546,-0.107977 -0.15964,-0.180568 -0.008,-0.01819 -0.0127,-0.03795 -0.01266,-0.05787 z"
       id="path2917-5" />
    <path
       style="fill:#000000;fill-opacity:1;stroke-width:0.264583"
       d="m 14.684375,13.973306 c -0.01361,-0.131782 0.128186,-0.139555 0.222842,-0.132291 0.685619,0.0013 1.371396,-0.0025 2.056916,0.0019 0.134414,0.02738 0.171792,0.185307 0.273797,0.262047 0.106158,0.113412 0.241438,0.198382 0.339185,0.318668 0.03324,0.110159 0.01137,0.229097 0.01768,0.343418 -0.0014,0.627674 0.0027,1.255531 -0.0021,1.88309 -0.01295,0.120625 -0.14914,0.100456 -0.237239,0.101285 -0.680131,-0.0013 -1.360419,0.0025 -2.040452,-0.0019 -0.134416,-0.02738 -0.171789,-0.185309 -0.273797,-0.262046 -0.106159,-0.113412 -0.241437,-0.198383 -0.339184,-0.318669 -0.03324,-0.110158 -0.01137,-0.229097 -0.01768,-0.343417 0,-0.617361 0,-1.234723 0,-1.852084 z m 0.529167,2.381251 c 0.123594,0.158675 0.282358,-0.01716 0.259932,-0.170014 0.01019,-0.372654 0.002,-0.745908 0.0046,-1.118809 0.0096,-0.175251 -0.03786,-0.363104 -0.178857,-0.477532 -0.07095,-0.06372 -0.13921,-0.174448 -0.249023,-0.145674 -0.110159,0.08498 -0.09662,0.247631 -0.101283,0.37392 0.0013,0.357662 -0.0026,0.715428 0.0021,1.07302 -0.0021,0.196072 0.12503,0.342199 0.262515,0.465089 z m 1.719792,0.132292 c 0.16274,0.01039 0.378136,-0.0465 0.383955,-0.244429 0.02443,-0.226007 0.0082,-0.454449 0.01292,-0.68161 -0.0073,-0.180914 0.02608,-0.372472 -0.05374,-0.541571 -0.09447,-0.133956 -0.278987,-0.117048 -0.425451,-0.119884 -0.268636,0.0024 -0.537606,-0.0053 -0.805997,0.0046 -0.186308,-0.01138 -0.313755,0.150367 -0.30024,0.328144 -0.0033,0.307209 -0.0034,0.614696 0,0.921905 -0.01351,0.177777 0.113931,0.339528 0.30024,0.328145 0.295748,0.0099 0.592305,0.0022 0.888316,0.0046 z m 0,-1.852083 c 0.121131,0.0075 0.411127,-0.0309 0.29816,-0.209288 -0.08018,-0.135284 -0.218505,-0.22771 -0.356559,-0.294557 -0.197622,-0.0431 -0.401606,-0.01903 -0.602481,-0.02532 -0.252174,0.0024 -0.504676,-0.0052 -0.756606,0.0046 -0.152852,-0.02243 -0.328692,0.136341 -0.170014,0.259931 0.107387,0.107852 0.213931,0.235222 0.376723,0.251665 0.226007,0.02443 0.454449,0.0082 0.68161,0.01292 0.176389,0 0.352778,0 0.529167,0 z"
       id="path2915-8" />
  </g>
</svg>
